<svg width="24" height="20" viewBox="0 0 24 20" fill="none" xmlns="http://www.w3.org/2000/svg">
<path d="M0.824072 8.12564e-05C0.716406 -0.00144141 0.609511 0.0184495 0.5096 0.0585982C0.409688 0.0987469 0.318752 0.158353 0.242077 0.233951C0.165401 0.30955 0.104516 0.399634 0.0629582 0.498968C0.0214007 0.598302 0 0.704904 0 0.812581C0 0.920258 0.0214007 1.02686 0.0629582 1.12619C0.104516 1.22553 0.165401 1.31561 0.242077 1.39121C0.318752 1.46681 0.409688 1.52642 0.5096 1.56656C0.609511 1.60671 0.716406 1.6266 0.824072 1.62508H2.31683C2.71113 1.62508 3.03981 1.8975 3.11452 2.28524L3.27638 3.13159L5.02305 12.305C5.3389 13.9601 6.7971 15.1667 8.48252 15.1667H18.624C20.3094 15.1667 21.7682 13.9606 22.0834 12.305L23.8301 3.13159C23.8525 3.01414 23.8487 2.89319 23.819 2.77737C23.7893 2.66155 23.7344 2.55372 23.6582 2.46156C23.582 2.36941 23.4864 2.2952 23.3782 2.24424C23.2701 2.19328 23.152 2.16682 23.0324 2.16675H4.74587L4.71095 1.98161C4.49259 0.837244 3.48201 8.12564e-05 2.31683 8.12564e-05H0.824072ZM5.05584 3.79175H22.0506L20.487 12.0014C20.3158 12.9003 19.5396 13.5417 18.624 13.5417H8.48252C7.56718 13.5417 6.79149 12.9003 6.61948 12.0014V12.0003L5.05584 3.79175ZM9.76157 16.2501C9.3306 16.2501 8.91727 16.4213 8.61252 16.726C8.30778 17.0308 8.13657 17.4441 8.13657 17.8751C8.13657 18.3061 8.30778 18.7194 8.61252 19.0241C8.91727 19.3289 9.3306 19.5001 9.76157 19.5001C10.1925 19.5001 10.6059 19.3289 10.9106 19.0241C11.2154 18.7194 11.3866 18.3061 11.3866 17.8751C11.3866 17.4441 11.2154 17.0308 10.9106 16.726C10.6059 16.4213 10.1925 16.2501 9.76157 16.2501ZM17.3449 16.2501C16.9139 16.2501 16.5006 16.4213 16.1959 16.726C15.8911 17.0308 15.7199 17.4441 15.7199 17.8751C15.7199 18.3061 15.8911 18.7194 16.1959 19.0241C16.5006 19.3289 16.9139 19.5001 17.3449 19.5001C17.7759 19.5001 18.1892 19.3289 18.494 19.0241C18.7987 18.7194 18.9699 18.3061 18.9699 17.8751C18.9699 17.4441 18.7987 17.0308 18.494 16.726C18.1892 16.4213 17.7759 16.2501 17.3449 16.2501Z" fill="#182A42"/>
</svg>
