<svg width="187" height="41" viewBox="0 0 187 41" fill="none" xmlns="http://www.w3.org/2000/svg">
<path d="M68.1348 30.5007L65.2541 33.4343C63.6631 35.0545 63.6631 37.6813 65.2541 39.3015C66.8451 40.9217 69.4246 40.9217 71.0155 39.3015C72.6065 37.6813 72.6065 35.0545 71.0155 33.4343L68.1348 30.5007Z" fill="#43A0FD"/>
<path d="M30.8151 29.9895L27.8019 24.0032H10.9681L7.95488 29.9895H0L14.5036 1.86613H24.2664L38.8102 29.9895H30.8151ZM13.6599 18.6196H25.1101L19.4051 7.20956L13.6599 18.6196Z" fill="#182A42"/>
<path d="M30.8151 29.9895L27.8019 24.0032H10.9681L7.95488 29.9895H0L14.5036 1.86613H24.2664L38.8102 29.9895H30.8151ZM13.6599 18.6196H25.1101L19.4051 7.20956L13.6599 18.6196Z" fill="url(#paint0_linear_88_522)"/>
<path d="M104.237 1.86613H112.353L97.8896 29.9895H88.0062L73.5428 1.86613H81.6584L92.9479 24.646L104.237 1.86613Z" fill="#182A42"/>
<path d="M104.237 1.86613H112.353L97.8896 29.9895H88.0062L73.5428 1.86613H81.6584L92.9479 24.646L104.237 1.86613Z" fill="url(#paint1_linear_88_522)"/>
<path d="M143.812 7.61132H121.313V13.3163H143.812V18.5392H121.313V24.2443H143.812V29.9895H114.082V1.86613H143.812V7.61132Z" fill="#182A42"/>
<path d="M143.812 7.61132H121.313V13.3163H143.812V18.5392H121.313V24.2443H143.812V29.9895H114.082V1.86613H143.812V7.61132Z" fill="url(#paint2_linear_88_522)"/>
<path d="M145.538 29.9895L161.368 15.9278L145.538 1.86613H155.502L166.269 11.5084L176.996 1.86613H187L171.171 15.9278L187 29.9895H176.996L166.269 20.3472L155.502 29.9895H145.538Z" fill="#182A42"/>
<path d="M145.538 29.9895L161.368 15.9278L145.538 1.86613H155.502L166.269 11.5084L176.996 1.86613H187L171.171 15.9278L187 29.9895H176.996L166.269 20.3472L155.502 29.9895H145.538Z" fill="url(#paint3_linear_88_522)"/>
<path fill-rule="evenodd" clip-rule="evenodd" d="M39.1947 15.9245C38.9965 7.22341 46.5267 -0.181731 56.2366 0.003398C66.1447 0.003398 73.2785 7.03828 72.8822 15.9245C72.8822 20.6172 70.8948 24.9385 67.3533 27.8764C65.0234 25.1676 64.3633 22.069 65.0468 18.4789C65.2532 17.6858 65.3521 16.8398 65.3521 15.9245C65.3521 13.3327 64.5594 11.2962 62.7759 9.44495C60.9925 7.77879 58.8127 6.85315 56.2366 6.85315C53.6605 6.85315 51.4807 7.59367 49.6972 9.44495C47.9138 11.2962 47.1211 13.3327 47.1211 15.9245C47.1211 18.5163 47.9138 20.5527 49.6972 22.4039C51.4807 24.0701 53.4623 24.9957 56.2366 24.9957L56.3032 24.996C56.3471 24.9962 56.3909 24.9964 56.4348 24.9957C60.1998 24.9957 62.3796 26.1065 64.1631 27.5875C64.4232 27.7766 64.6665 27.9735 64.8985 28.1754C65.2125 28.4487 65.5057 28.7313 65.792 29.0158C65.4577 29.2296 65.1128 29.4325 64.7576 29.624C62.9251 30.6775 60.8921 31.3563 58.7299 31.6604C57.8525 31.7838 56.9537 31.8455 56.0384 31.8455C52.8678 31.8455 49.8954 31.105 47.3193 29.624C42.1671 26.847 39.1947 21.6634 39.1947 15.9245Z" fill="#182A42"/>
<path fill-rule="evenodd" clip-rule="evenodd" d="M39.1947 15.9245C38.9965 7.22341 46.5267 -0.181731 56.2366 0.003398C66.1447 0.003398 73.2785 7.03828 72.8822 15.9245C72.8822 20.6172 70.8948 24.9385 67.3533 27.8764C65.0234 25.1676 64.3633 22.069 65.0468 18.4789C65.2532 17.6858 65.3521 16.8398 65.3521 15.9245C65.3521 13.3327 64.5594 11.2962 62.7759 9.44495C60.9925 7.77879 58.8127 6.85315 56.2366 6.85315C53.6605 6.85315 51.4807 7.59367 49.6972 9.44495C47.9138 11.2962 47.1211 13.3327 47.1211 15.9245C47.1211 18.5163 47.9138 20.5527 49.6972 22.4039C51.4807 24.0701 53.4623 24.9957 56.2366 24.9957L56.3032 24.996C56.3471 24.9962 56.3909 24.9964 56.4348 24.9957C60.1998 24.9957 62.3796 26.1065 64.1631 27.5875C64.4232 27.7766 64.6665 27.9735 64.8985 28.1754C65.2125 28.4487 65.5057 28.7313 65.792 29.0158C65.4577 29.2296 65.1128 29.4325 64.7576 29.624C62.9251 30.6775 60.8921 31.3563 58.7299 31.6604C57.8525 31.7838 56.9537 31.8455 56.0384 31.8455C52.8678 31.8455 49.8954 31.105 47.3193 29.624C42.1671 26.847 39.1947 21.6634 39.1947 15.9245Z" fill="url(#paint4_linear_88_522)"/>
<defs>
<linearGradient id="paint0_linear_88_522" x1="0" y1="15.9228" x2="187" y2="15.9228" gradientUnits="userSpaceOnUse">
<stop stop-color="#3360A4"/>
<stop offset="1" stop-color="#01141D"/>
</linearGradient>
<linearGradient id="paint1_linear_88_522" x1="0" y1="15.9228" x2="187" y2="15.9228" gradientUnits="userSpaceOnUse">
<stop stop-color="#3360A4"/>
<stop offset="1" stop-color="#01141D"/>
</linearGradient>
<linearGradient id="paint2_linear_88_522" x1="0" y1="15.9228" x2="187" y2="15.9228" gradientUnits="userSpaceOnUse">
<stop stop-color="#3360A4"/>
<stop offset="1" stop-color="#01141D"/>
</linearGradient>
<linearGradient id="paint3_linear_88_522" x1="0" y1="15.9228" x2="187" y2="15.9228" gradientUnits="userSpaceOnUse">
<stop stop-color="#3360A4"/>
<stop offset="1" stop-color="#01141D"/>
</linearGradient>
<linearGradient id="paint4_linear_88_522" x1="0" y1="15.9228" x2="187" y2="15.9228" gradientUnits="userSpaceOnUse">
<stop stop-color="#3360A4"/>
<stop offset="1" stop-color="#01141D"/>
</linearGradient>
</defs>
</svg>
